<?xml version="1.0" standalone="no"?>
<!DOCTYPE svg PUBLIC "-//W3C//DTD SVG 20010904//EN"
 "http://www.w3.org/TR/2001/REC-SVG-20010904/DTD/svg10.dtd">
<svg version="1.0" xmlns="http://www.w3.org/2000/svg"
 width="250.000000pt" height="250.000000pt" viewBox="0 0 250.000000 250.000000"
 preserveAspectRatio="xMidYMid meet">
<metadata>
Created by potrace 1.14, written by Peter Selinger 2001-2017
</metadata>
<g transform="translate(0.000000,250.000000) scale(0.100000,-0.100000)"
fill="#000000" stroke="none">
<path d="M8 2063 c5 -10 12 -49 16 -88 8 -84 34 -326 41 -375 2 -19 14 -116
25 -215 11 -99 22 -200 25 -225 12 -107 14 -128 20 -185 3 -33 8 -71 10 -85 2
-14 7 -56 10 -95 4 -38 8 -77 10 -85 2 -8 7 -49 10 -90 10 -116 0 -111 266
-116 317 -5 335 -7 418 -55 l69 -40 276 1 c164 1 274 5 270 11 -3 5 0 9 5 9 6
0 11 -4 11 -9 0 -12 437 -14 445 -1 3 6 10 8 15 5 9 -6 22 26 25 65 2 14 24
70 50 125 84 178 155 335 246 545 11 25 24 54 29 65 5 11 43 101 84 200 40 99
79 179 85 178 16 -4 35 37 22 50 -5 5 -7 23 -4 38 10 51 -4 73 -79 124 -40 28
-90 59 -110 70 -21 11 -38 23 -38 27 0 5 -5 8 -11 8 -11 0 -37 11 -144 60 -33
15 -103 43 -155 61 l-95 34 -928 3 c-887 2 -928 2 -919 -15z m1462 -1617 c0
-3 -4 -8 -10 -11 -5 -3 -10 -1 -10 4 0 6 5 11 10 11 6 0 10 -2 10 -4z m46 -7
c4 -8 9 -7 15 2 6 10 9 10 9 2 0 -19 -14 -22 -35 -7 -10 8 -14 14 -8 14 7 0
15 -5 19 -11z m59 -17 c-3 -3 -11 0 -18 7 -9 10 -8 11 6 5 10 -3 15 -9 12 -12z"/>
</g>
</svg>
